<svg >

<symbol id="whatsapp-logo" xmlns="http://www.w3.org/2000/svg" viewBox="0 0 31.2 31.19">
  <path fill="#0cb400" d="M31.2,15.59A15.6,15.6,0,1,1,15.6,0,15.59,15.59,0,0,1,31.2,15.59Z"/><path fill="#fff" d="M26.34,12.19A10.56,10.56,0,0,0,16.06,4.05a12.12,12.12,0,0,0-2,.22A10.54,10.54,0,0,0,6.82,19.63a.64.64,0,0,1,.09.52c-.49,1.61-.94,3.27-1.37,4.9-.08.28-.08.28.19.19,1.72-.45,3.4-.88,5.11-1.3a.5.5,0,0,1,.38,0A10.53,10.53,0,0,0,26.34,12.19Zm-8.79,11a4.6,4.6,0,0,1-1.23.1,9,9,0,0,1-4.75-1.22A.54.54,0,0,0,11,22c-1,.23-1.89.49-2.82.73-.2.07-.22,0-.18-.17.25-.88.49-1.77.76-2.67a.65.65,0,0,0-.11-.63A8.66,8.66,0,0,1,9,9.49,8.33,8.33,0,0,1,17.91,6a8.29,8.29,0,0,1,6.7,6.65A8.7,8.7,0,0,1,17.55,23.24Z"/><path fill="#fff" d="M18.82,19.63a2.93,2.93,0,0,1-1.1-.14A10.75,10.75,0,0,1,12,15.28a5.87,5.87,0,0,1-1.23-2.47,2.9,2.9,0,0,1,1-2.83,1.64,1.64,0,0,1,1.41-.2.82.82,0,0,1,.23.29c.3.73.62,1.44.92,2.15a.56.56,0,0,1,0,.45,4.37,4.37,0,0,1-.64.86.4.4,0,0,0-.07.59,7.08,7.08,0,0,0,3.6,3.07.41.41,0,0,0,.54-.11c.27-.32.54-.66.79-1a.45.45,0,0,1,.58-.15l1.53.71a1.65,1.65,0,0,0,.36.16c.51.27.51.29.45.86a2.21,2.21,0,0,1-1.88,1.93A1.52,1.52,0,0,1,18.82,19.63Z"/>
</symbol>

</svg>