<svg xmlns="http://www.w3.org/2000/svg" xmlns:xlink="http://www.w3.org/1999/xlink" viewBox="0 0 58.56 58.55"><defs><style>.cls-1{fill:url(#radial-gradient);}.cls-2{fill:#0cb400;fill-rule:evenodd;}</style><radialGradient id="radial-gradient" cx="25.5" cy="11.05" r="85.28" gradientUnits="userSpaceOnUse"><stop offset="0.17" stop-color="#e6e7eb"/><stop offset="0.84" stop-color="#4d4d4d"/></radialGradient></defs><g id="Layer_2" data-name="Layer 2"><g id="Layer_1-2" data-name="Layer 1"><path class="cls-1" d="M58.56,29.26A29.28,29.28,0,1,1,29.28,0,29.28,29.28,0,0,1,58.56,29.26Z"/><path class="cls-2" d="M49.05,23.5A19.87,19.87,0,0,0,29.75,8.22a26.32,26.32,0,0,0-3.78.4A19.79,19.79,0,0,0,12.41,37.47a1.2,1.2,0,0,1,.18,1c-.92,3-1.77,6.13-2.58,9.2-.15.52-.15.52.36.38,3.22-.85,6.38-1.67,9.58-2.47a1,1,0,0,1,.72,0A19.79,19.79,0,0,0,49.05,23.5ZM32.54,44.23a9.45,9.45,0,0,1-2.29.21,17,17,0,0,1-8.93-2.29,1,1,0,0,0-1-.16c-1.78.43-3.53.93-5.29,1.37-.37.11-.41,0-.33-.31.46-1.66.92-3.33,1.43-5a1.26,1.26,0,0,0-.2-1.18,16.3,16.3,0,0,1,.58-18.44C20.67,12.84,26.4,10.5,33.23,12s11,5.8,12.57,12.47A16.33,16.33,0,0,1,32.54,44.23Z"/><path class="cls-2" d="M34.93,37.47a5.42,5.42,0,0,1-2.07-.27,20.19,20.19,0,0,1-10.7-7.89,11.12,11.12,0,0,1-2.29-4.64,5.41,5.41,0,0,1,1.78-5.31A3.11,3.11,0,0,1,24.28,19a1.9,1.9,0,0,1,.45.53c.56,1.4,1.15,2.72,1.72,4.06a1,1,0,0,1-.08.84A7.8,7.8,0,0,1,25.16,26,.76.76,0,0,0,25,27.12a13.09,13.09,0,0,0,6.77,5.76.73.73,0,0,0,1-.2c.51-.6,1-1.24,1.48-1.86a.85.85,0,0,1,1.09-.27l2.88,1.32a2.83,2.83,0,0,0,.66.31c1,.5,1,.55.86,1.62-.14,2.08-1.72,3.13-3.54,3.62A3.08,3.08,0,0,1,34.93,37.47Z"/></g></g></svg>